<svg width="19" height="19" viewBox="0 0 19 19" fill="none" xmlns="http://www.w3.org/2000/svg">
<path d="M13.6193 6.65683L9.83212 3.10502C9.71315 2.99332 9.55611 2.93127 9.39308 2.93127H1.73319C1.37865 2.93127 1.09131 3.21861 1.09131 3.57316V18.358C1.09131 18.7126 1.37865 18.9999 1.73319 18.9999H13.1802C13.5348 18.9999 13.8221 18.7126 13.8221 18.358V7.12497C13.8221 6.94758 13.7488 6.77814 13.6193 6.65683ZM12.5384 17.7162H2.37507V4.21504H9.13911L12.5384 7.40288V17.7162Z" fill="#3C67FF"/>
<path d="M8.36606 9.17908H4.40775C4.05321 9.17908 3.76587 9.46642 3.76587 9.82096C3.76587 10.1755 4.05321 10.4628 4.40775 10.4628H8.3661C8.72064 10.4628 9.00798 10.1757 9.00798 9.82096C9.00798 9.46645 8.7206 9.17908 8.36606 9.17908Z" fill="#3C67FF"/>
<path d="M10.5057 11.7039H4.40775C4.05321 11.7039 3.76587 11.9912 3.76587 12.3457C3.76587 12.7003 4.05321 12.9876 4.40775 12.9876H10.5057C10.8603 12.9876 11.1476 12.7003 11.1476 12.3457C11.1476 11.9912 10.8603 11.7039 10.5057 11.7039Z" fill="#3C67FF"/>
<path d="M10.5057 14.2286H4.40775C4.05321 14.2286 3.76587 14.516 3.76587 14.8705C3.76587 15.2251 4.05321 15.5124 4.40775 15.5124H10.5057C10.8603 15.5124 11.1476 15.2251 11.1476 14.8705C11.1476 14.516 10.8603 14.2286 10.5057 14.2286Z" fill="#3C67FF"/>
<path d="M17.7061 3.72552L13.9191 0.173746C13.8 0.0620469 13.6431 0 13.4799 0H5.81998C5.46544 0 5.1781 0.287338 5.1781 0.641881V3.57319H6.4619V1.2838H13.2262L16.6252 4.47187V14.7849H13.1804V16.0687H17.267C17.6216 16.0687 17.9089 15.7814 17.9087 15.4269V4.19369C17.9087 4.01631 17.8353 3.84687 17.7061 3.72552Z" fill="#3C67FF"/>
<path d="M14.1217 3.55178V0.641846H12.8379V4.19366C12.8379 4.5482 13.1252 4.83554 13.4798 4.83554H17.267V3.55178H14.1217Z" fill="#3C67FF"/>
<path d="M10.035 6.48317V3.57324H8.75122V7.12505C8.75122 7.4796 9.03856 7.76693 9.3931 7.76693H13.1803V6.48314H10.035V6.48317Z" fill="#3C67FF"/>
</svg>
