<svg width="18" height="14" viewBox="0 0 18 14" fill="none" xmlns="http://www.w3.org/2000/svg">
<path d="M5.46395 12.8153C5.6826 13.034 5.97914 13.1567 6.28835 13.1567C6.59762 13.1567 6.8941 13.0339 7.11275 12.8153L17.0945 2.83361C17.5498 2.3783 17.5498 1.64012 17.0945 1.18481C16.6392 0.729501 15.9009 0.729447 15.4456 1.18481L6.28835 10.3421L2.55412 6.60784C2.09881 6.15248 1.36063 6.15248 0.905324 6.60784C0.450016 7.06315 0.450016 7.80133 0.905324 8.25664L5.46395 12.8153Z" fill="#19AC57"/>
<path d="M6.2884 13.1839C5.96971 13.1839 5.67007 13.0598 5.44473 12.8345L0.886101 8.27585C0.420942 7.81063 0.420942 7.05373 0.886101 6.58852C1.11144 6.36312 1.41108 6.23902 1.72977 6.23902C2.04846 6.23902 2.34804 6.36312 2.57343 6.58852L6.28845 10.3035L15.4264 1.16548C15.6518 0.940086 15.9514 0.81604 16.2701 0.81604C16.5887 0.81604 16.8884 0.940141 17.1138 1.16548C17.3392 1.39082 17.4633 1.69046 17.4633 2.00915C17.4633 2.32784 17.3392 2.62742 17.1138 2.85281L7.13206 12.8345C6.90678 13.0598 6.60714 13.1839 6.2884 13.1839ZM1.72977 6.29351C1.42561 6.29351 1.13969 6.41194 0.924637 6.62705C0.480705 7.07104 0.480705 7.79338 0.924637 8.23737L5.48327 12.796C5.69832 13.0111 5.98424 13.1295 6.2884 13.1295C6.59261 13.1295 6.87853 13.0111 7.09358 12.796L17.0752 2.81433C17.2903 2.59928 17.4088 2.3133 17.4088 2.0092C17.4088 1.7051 17.2903 1.41907 17.0752 1.20402C16.8602 0.98891 16.5742 0.870525 16.2701 0.870525C15.9659 0.870525 15.6799 0.988965 15.4649 1.20402L6.2884 10.3806L2.5349 6.62705C2.31984 6.41194 2.03392 6.29351 1.72977 6.29351Z" fill="#19AC57"/>
</svg>
