<svg width="23" height="21" viewBox="0 0 23 21" fill="none" xmlns="http://www.w3.org/2000/svg">
<path d="M19.9272 3.61583H11.1771L10.2451 1.38986C10.1335 1.12337 9.86977 0.95 9.57771 0.95H3.0728C1.90306 0.950061 0.95 1.88591 0.95 3.03811V17.9619C0.95 19.1141 1.90306 20.05 3.0728 20.05H19.9272C21.0969 20.05 22.05 19.1141 22.05 17.9619V5.70394C22.05 4.55174 21.097 3.61583 19.9272 3.61583ZM20.6063 17.9619C20.6063 18.3287 20.3024 18.6287 19.9272 18.6287H3.0728C2.69759 18.6287 2.39375 18.3288 2.39375 17.9619V3.03811C2.39375 2.67127 2.69759 2.37126 3.0728 2.37126H9.0944L10.0263 4.59723C10.1379 4.86373 10.4017 5.03709 10.6938 5.03709H19.9272C20.3024 5.03709 20.6063 5.33704 20.6063 5.70394V17.9619Z" fill="#313646" stroke="#313646" stroke-width="0.1"/>
</svg>
