<svg width="20" height="18" viewBox="0 0 20 18" fill="none" xmlns="http://www.w3.org/2000/svg">
<path d="M16.4944 0.015625H3.54736C1.59134 0.015625 0 1.60345 0 3.55505V16.7925C0 17.2614 0.284424 17.6896 0.724945 17.8832C0.880585 17.9517 1.04553 17.9851 1.20911 17.985C1.50223 17.985 1.79108 17.8782 2.01492 17.6745C3.63785 16.206 5.73837 15.3974 7.92984 15.3974H7.93045L16.4967 15.398C18.4283 15.398 20 13.823 20 11.887V3.5134C20 1.58469 18.4274 0.015625 16.4944 0.015625ZM18.8281 11.887C18.8281 13.1768 17.7823 14.2261 16.4967 14.2261L7.93045 14.2255H7.92984C5.44739 14.2255 3.06732 15.1418 1.22742 16.8067C1.22177 16.8117 1.2059 16.8146 1.19659 16.8105C1.18362 16.8049 1.17462 16.7942 1.17188 16.7885V3.55505C1.17188 2.24966 2.23755 1.1875 3.54736 1.1875H16.4943C17.7811 1.1875 18.828 2.2309 18.828 3.5134V11.887H18.8281Z" fill="#313646"/>
<path d="M16.4944 0.015625H3.54736C1.59134 0.015625 0 1.60345 0 3.55505V16.7925C0 17.2614 0.284424 17.6896 0.724945 17.8832C0.880585 17.9517 1.04553 17.9851 1.20911 17.985C1.50223 17.985 1.79108 17.8782 2.01492 17.6745C3.63785 16.206 5.73837 15.3974 7.92984 15.3974H7.93045L16.4967 15.398C18.4283 15.398 20 13.823 20 11.887V3.5134C20 1.58469 18.4274 0.015625 16.4944 0.015625ZM18.8281 11.887C18.8281 13.1768 17.7823 14.2261 16.4967 14.2261L7.93045 14.2255H7.92984C5.44739 14.2255 3.06732 15.1418 1.22742 16.8067C1.22177 16.8117 1.2059 16.8146 1.19659 16.8105C1.18362 16.8049 1.17462 16.7942 1.17188 16.7885V3.55505C1.17188 2.24966 2.23755 1.1875 3.54736 1.1875H16.4943C17.7811 1.1875 18.828 2.2309 18.828 3.5134V11.887H18.8281Z" stroke="#313646"/>
</svg>
