<svg width="42" height="49" viewBox="0 0 42 49" fill="none" xmlns="http://www.w3.org/2000/svg">
<path d="M41.9677 24.3081C41.952 26.2353 41.936 28.2283 41.936 30.1583C41.936 39.724 32.8241 47.778 21.1919 48.494C21.1279 48.498 21.0642 48.5 20.9999 48.5C20.9356 48.5 20.8718 48.498 20.8078 48.494C9.17588 47.778 0.0640121 39.724 0.0640121 30.1583C0.0640121 28.2283 0.0477219 26.2353 0.0322911 24.3081C7.72842e-07 20.353 -0.0331442 16.2631 0.0671559 12.2955C0.10859 10.6568 1.38934 9.32175 3.01672 9.22148C9.003 8.85202 14.3643 5.8883 16.6755 1.67112C17.2039 0.707533 18.1926 0.0892765 19.2859 0.0390001C20.4229 -0.013 21.5765 -0.013 22.7138 0.0390001C23.8071 0.0889892 24.7958 0.707245 25.3242 1.67112C27.6351 5.8883 32.9967 8.85202 38.9833 9.2212C40.6107 9.32175 41.8917 10.6565 41.9328 12.2952C42.0331 16.2631 42 20.353 41.9677 24.3081ZM35.6974 15.1943C29.5499 14.1443 24.2143 11.024 20.9999 6.58671C17.7851 11.024 12.4498 14.1443 6.30262 15.1943C6.26918 18.2009 6.29433 21.2677 6.31862 24.2564C6.33462 26.1962 6.35062 28.2021 6.35062 30.1583C6.35062 36.3423 12.7695 41.5917 20.9999 42.1726C29.2305 41.5917 35.6494 36.3423 35.6494 30.1583C35.6494 28.2021 35.666 26.1962 35.6814 24.2564C35.7057 21.2677 35.7308 18.2009 35.6974 15.1943Z" fill="#9EA1AA"/>
<circle cx="21" cy="24" r="6.5" fill="#56D042"/>
</svg>
